<?xml version="1.0" encoding="utf-8" standalone="no"?>
<!DOCTYPE svg PUBLIC "-//W3C//DTD SVG 1.1//EN"
  "http://www.w3.org/Graphics/SVG/1.1/DTD/svg11.dtd">
<svg xmlns:xlink="http://www.w3.org/1999/xlink" width="1008pt" height="460.8pt" viewBox="0 0 1008 460.8" xmlns="http://www.w3.org/2000/svg" version="1.1">
 <metadata>
  <rdf:RDF xmlns:dc="http://purl.org/dc/elements/1.1/" xmlns:cc="http://creativecommons.org/ns#" xmlns:rdf="http://www.w3.org/1999/02/22-rdf-syntax-ns#">
   <cc:Work>
    <dc:type rdf:resource="http://purl.org/dc/dcmitype/StillImage"/>
    <dc:date>2026-05-10T09:58:21.775139</dc:date>
    <dc:format>image/svg+xml</dc:format>
    <dc:creator>
     <cc:Agent>
      <dc:title>Matplotlib v3.10.8, https://matplotlib.org/</dc:title>
     </cc:Agent>
    </dc:creator>
   </cc:Work>
  </rdf:RDF>
 </metadata>
 <defs>
  <style type="text/css">*{stroke-linejoin: round; stroke-linecap: butt}</style>
 </defs>
 <g id="figure_1">
  <g id="patch_1">
   <path d="M 0 460.8 
L 1008 460.8 
L 1008 0 
L 0 0 
z
" style="fill: #ffffff"/>
  </g>
  <g id="axes_1">
   <g id="patch_2">
    <path d="M 72.65 406.411542 
L 997.2 406.411542 
L 997.2 25.44 
L 72.65 25.44 
z
" style="fill: #ffffff"/>
   </g>
   <g id="matplotlib.axis_1">
    <g id="xtick_1">
     <g id="line2d_1">
      <defs>
       <path id="mfbf966f845" d="M 0 0 
L 0 3.5 
" style="stroke: #000000; stroke-width: 0.8"/>
      </defs>
      <g>
       <use xlink:href="#mfbf966f845" x="145.80463" y="406.411542" style="stroke: #000000; stroke-width: 0.8"/>
      </g>
     </g>
     <g id="text_1">
      <!-- 25 -->
      <g transform="translate(137.429834 424.908215) rotate(-45) scale(0.08 -0.08)">
       <defs>
        <path id="DejaVuSans-32" d="M 1228 531 
L 3431 531 
L 3431 0 
L 469 0 
L 469 531 
Q 828 903 1448 1529 
Q 2069 2156 2228 2338 
Q 2531 2678 2651 2914 
Q 2772 3150 2772 3378 
Q 2772 3750 2511 3984 
Q 2250 4219 1831 4219 
Q 1534 4219 1204 4116 
Q 875 4013 500 3803 
L 500 4441 
Q 881 4594 1212 4672 
Q 1544 4750 1819 4750 
Q 2544 4750 2975 4387 
Q 3406 4025 3406 3419 
Q 3406 3131 3298 2873 
Q 3191 2616 2906 2266 
Q 2828 2175 2409 1742 
Q 1991 1309 1228 531 
z
" transform="scale(0.015625)"/>
        <path id="DejaVuSans-35" d="M 691 4666 
L 3169 4666 
L 3169 4134 
L 1269 4134 
L 1269 2991 
Q 1406 3038 1543 3061 
Q 1681 3084 1819 3084 
Q 2600 3084 3056 2656 
Q 3513 2228 3513 1497 
Q 3513 744 3044 326 
Q 2575 -91 1722 -91 
Q 1428 -91 1123 -41 
Q 819 9 494 109 
L 494 744 
Q 775 591 1075 516 
Q 1375 441 1709 441 
Q 2250 441 2565 725 
Q 2881 1009 2881 1497 
Q 2881 1984 2565 2268 
Q 2250 2553 1709 2553 
Q 1456 2553 1204 2497 
Q 953 2441 691 2322 
L 691 4666 
z
" transform="scale(0.015625)"/>
       </defs>
       <use xlink:href="#DejaVuSans-32"/>
       <use xlink:href="#DejaVuSans-35" transform="translate(63.623047 0)"/>
      </g>
     </g>
    </g>
    <g id="xtick_2">
     <g id="line2d_2">
      <g>
       <use xlink:href="#mfbf966f845" x="223.628704" y="406.411542" style="stroke: #000000; stroke-width: 0.8"/>
      </g>
     </g>
     <g id="text_2">
      <!-- 50 -->
      <g transform="translate(215.253908 424.908215) rotate(-45) scale(0.08 -0.08)">
       <defs>
        <path id="DejaVuSans-30" d="M 2034 4250 
Q 1547 4250 1301 3770 
Q 1056 3291 1056 2328 
Q 1056 1369 1301 889 
Q 1547 409 2034 409 
Q 2525 409 2770 889 
Q 3016 1369 3016 2328 
Q 3016 3291 2770 3770 
Q 2525 4250 2034 4250 
z
M 2034 4750 
Q 2819 4750 3233 4129 
Q 3647 3509 3647 2328 
Q 3647 1150 3233 529 
Q 2819 -91 2034 -91 
Q 1250 -91 836 529 
Q 422 1150 422 2328 
Q 422 3509 836 4129 
Q 1250 4750 2034 4750 
z
" transform="scale(0.015625)"/>
       </defs>
       <use xlink:href="#DejaVuSans-35"/>
       <use xlink:href="#DejaVuSans-30" transform="translate(63.623047 0)"/>
      </g>
     </g>
    </g>
    <g id="xtick_3">
     <g id="line2d_3">
      <g>
       <use xlink:href="#mfbf966f845" x="301.452778" y="406.411542" style="stroke: #000000; stroke-width: 0.8"/>
      </g>
     </g>
     <g id="text_3">
      <!-- 75 -->
      <g transform="translate(293.077982 424.908215) rotate(-45) scale(0.08 -0.08)">
       <defs>
        <path id="DejaVuSans-37" d="M 525 4666 
L 3525 4666 
L 3525 4397 
L 1831 0 
L 1172 0 
L 2766 4134 
L 525 4134 
L 525 4666 
z
" transform="scale(0.015625)"/>
       </defs>
       <use xlink:href="#DejaVuSans-37"/>
       <use xlink:href="#DejaVuSans-35" transform="translate(63.623047 0)"/>
      </g>
     </g>
    </g>
    <g id="xtick_4">
     <g id="line2d_4">
      <g>
       <use xlink:href="#mfbf966f845" x="379.276852" y="406.411542" style="stroke: #000000; stroke-width: 0.8"/>
      </g>
     </g>
     <g id="text_4">
      <!-- 100 -->
      <g transform="translate(367.302882 428.507388) rotate(-45) scale(0.08 -0.08)">
       <defs>
        <path id="DejaVuSans-31" d="M 794 531 
L 1825 531 
L 1825 4091 
L 703 3866 
L 703 4441 
L 1819 4666 
L 2450 4666 
L 2450 531 
L 3481 531 
L 3481 0 
L 794 0 
L 794 531 
z
" transform="scale(0.015625)"/>
       </defs>
       <use xlink:href="#DejaVuSans-31"/>
       <use xlink:href="#DejaVuSans-30" transform="translate(63.623047 0)"/>
       <use xlink:href="#DejaVuSans-30" transform="translate(127.246094 0)"/>
      </g>
     </g>
    </g>
    <g id="xtick_5">
     <g id="line2d_5">
      <g>
       <use xlink:href="#mfbf966f845" x="457.100926" y="406.411542" style="stroke: #000000; stroke-width: 0.8"/>
      </g>
     </g>
     <g id="text_5">
      <!-- 200 -->
      <g transform="translate(445.126956 428.507388) rotate(-45) scale(0.08 -0.08)">
       <use xlink:href="#DejaVuSans-32"/>
       <use xlink:href="#DejaVuSans-30" transform="translate(63.623047 0)"/>
       <use xlink:href="#DejaVuSans-30" transform="translate(127.246094 0)"/>
      </g>
     </g>
    </g>
    <g id="xtick_6">
     <g id="line2d_6">
      <g>
       <use xlink:href="#mfbf966f845" x="534.925" y="406.411542" style="stroke: #000000; stroke-width: 0.8"/>
      </g>
     </g>
     <g id="text_6">
      <!-- 400 -->
      <g transform="translate(522.951031 428.507388) rotate(-45) scale(0.08 -0.08)">
       <defs>
        <path id="DejaVuSans-34" d="M 2419 4116 
L 825 1625 
L 2419 1625 
L 2419 4116 
z
M 2253 4666 
L 3047 4666 
L 3047 1625 
L 3713 1625 
L 3713 1100 
L 3047 1100 
L 3047 0 
L 2419 0 
L 2419 1100 
L 313 1100 
L 313 1709 
L 2253 4666 
z
" transform="scale(0.015625)"/>
       </defs>
       <use xlink:href="#DejaVuSans-34"/>
       <use xlink:href="#DejaVuSans-30" transform="translate(63.623047 0)"/>
       <use xlink:href="#DejaVuSans-30" transform="translate(127.246094 0)"/>
      </g>
     </g>
    </g>
    <g id="xtick_7">
     <g id="line2d_7">
      <g>
       <use xlink:href="#mfbf966f845" x="612.749074" y="406.411542" style="stroke: #000000; stroke-width: 0.8"/>
      </g>
     </g>
     <g id="text_7">
      <!-- 800 -->
      <g transform="translate(600.775105 428.507388) rotate(-45) scale(0.08 -0.08)">
       <defs>
        <path id="DejaVuSans-38" d="M 2034 2216 
Q 1584 2216 1326 1975 
Q 1069 1734 1069 1313 
Q 1069 891 1326 650 
Q 1584 409 2034 409 
Q 2484 409 2743 651 
Q 3003 894 3003 1313 
Q 3003 1734 2745 1975 
Q 2488 2216 2034 2216 
z
M 1403 2484 
Q 997 2584 770 2862 
Q 544 3141 544 3541 
Q 544 4100 942 4425 
Q 1341 4750 2034 4750 
Q 2731 4750 3128 4425 
Q 3525 4100 3525 3541 
Q 3525 3141 3298 2862 
Q 3072 2584 2669 2484 
Q 3125 2378 3379 2068 
Q 3634 1759 3634 1313 
Q 3634 634 3220 271 
Q 2806 -91 2034 -91 
Q 1263 -91 848 271 
Q 434 634 434 1313 
Q 434 1759 690 2068 
Q 947 2378 1403 2484 
z
M 1172 3481 
Q 1172 3119 1398 2916 
Q 1625 2713 2034 2713 
Q 2441 2713 2670 2916 
Q 2900 3119 2900 3481 
Q 2900 3844 2670 4047 
Q 2441 4250 2034 4250 
Q 1625 4250 1398 4047 
Q 1172 3844 1172 3481 
z
" transform="scale(0.015625)"/>
       </defs>
       <use xlink:href="#DejaVuSans-38"/>
       <use xlink:href="#DejaVuSans-30" transform="translate(63.623047 0)"/>
       <use xlink:href="#DejaVuSans-30" transform="translate(127.246094 0)"/>
      </g>
     </g>
    </g>
    <g id="xtick_8">
     <g id="line2d_8">
      <g>
       <use xlink:href="#mfbf966f845" x="690.573148" y="406.411542" style="stroke: #000000; stroke-width: 0.8"/>
      </g>
     </g>
     <g id="text_8">
      <!-- 1600 -->
      <g transform="translate(675.000005 432.106562) rotate(-45) scale(0.08 -0.08)">
       <defs>
        <path id="DejaVuSans-36" d="M 2113 2584 
Q 1688 2584 1439 2293 
Q 1191 2003 1191 1497 
Q 1191 994 1439 701 
Q 1688 409 2113 409 
Q 2538 409 2786 701 
Q 3034 994 3034 1497 
Q 3034 2003 2786 2293 
Q 2538 2584 2113 2584 
z
M 3366 4563 
L 3366 3988 
Q 3128 4100 2886 4159 
Q 2644 4219 2406 4219 
Q 1781 4219 1451 3797 
Q 1122 3375 1075 2522 
Q 1259 2794 1537 2939 
Q 1816 3084 2150 3084 
Q 2853 3084 3261 2657 
Q 3669 2231 3669 1497 
Q 3669 778 3244 343 
Q 2819 -91 2113 -91 
Q 1303 -91 875 529 
Q 447 1150 447 2328 
Q 447 3434 972 4092 
Q 1497 4750 2381 4750 
Q 2619 4750 2861 4703 
Q 3103 4656 3366 4563 
z
" transform="scale(0.015625)"/>
       </defs>
       <use xlink:href="#DejaVuSans-31"/>
       <use xlink:href="#DejaVuSans-36" transform="translate(63.623047 0)"/>
       <use xlink:href="#DejaVuSans-30" transform="translate(127.246094 0)"/>
       <use xlink:href="#DejaVuSans-30" transform="translate(190.869141 0)"/>
      </g>
     </g>
    </g>
    <g id="xtick_9">
     <g id="line2d_9">
      <g>
       <use xlink:href="#mfbf966f845" x="768.397222" y="406.411542" style="stroke: #000000; stroke-width: 0.8"/>
      </g>
     </g>
     <g id="text_9">
      <!-- 3200 -->
      <g transform="translate(752.824079 432.106562) rotate(-45) scale(0.08 -0.08)">
       <defs>
        <path id="DejaVuSans-33" d="M 2597 2516 
Q 3050 2419 3304 2112 
Q 3559 1806 3559 1356 
Q 3559 666 3084 287 
Q 2609 -91 1734 -91 
Q 1441 -91 1130 -33 
Q 819 25 488 141 
L 488 750 
Q 750 597 1062 519 
Q 1375 441 1716 441 
Q 2309 441 2620 675 
Q 2931 909 2931 1356 
Q 2931 1769 2642 2001 
Q 2353 2234 1838 2234 
L 1294 2234 
L 1294 2753 
L 1863 2753 
Q 2328 2753 2575 2939 
Q 2822 3125 2822 3475 
Q 2822 3834 2567 4026 
Q 2313 4219 1838 4219 
Q 1578 4219 1281 4162 
Q 984 4106 628 3988 
L 628 4550 
Q 988 4650 1302 4700 
Q 1616 4750 1894 4750 
Q 2613 4750 3031 4423 
Q 3450 4097 3450 3541 
Q 3450 3153 3228 2886 
Q 3006 2619 2597 2516 
z
" transform="scale(0.015625)"/>
       </defs>
       <use xlink:href="#DejaVuSans-33"/>
       <use xlink:href="#DejaVuSans-32" transform="translate(63.623047 0)"/>
       <use xlink:href="#DejaVuSans-30" transform="translate(127.246094 0)"/>
       <use xlink:href="#DejaVuSans-30" transform="translate(190.869141 0)"/>
      </g>
     </g>
    </g>
    <g id="xtick_10">
     <g id="line2d_10">
      <g>
       <use xlink:href="#mfbf966f845" x="846.221296" y="406.411542" style="stroke: #000000; stroke-width: 0.8"/>
      </g>
     </g>
     <g id="text_10">
      <!-- 6400 -->
      <g transform="translate(830.648153 432.106562) rotate(-45) scale(0.08 -0.08)">
       <use xlink:href="#DejaVuSans-36"/>
       <use xlink:href="#DejaVuSans-34" transform="translate(63.623047 0)"/>
       <use xlink:href="#DejaVuSans-30" transform="translate(127.246094 0)"/>
       <use xlink:href="#DejaVuSans-30" transform="translate(190.869141 0)"/>
      </g>
     </g>
    </g>
    <g id="xtick_11">
     <g id="line2d_11">
      <g>
       <use xlink:href="#mfbf966f845" x="924.04537" y="406.411542" style="stroke: #000000; stroke-width: 0.8"/>
      </g>
     </g>
     <g id="text_11">
      <!-- 12800 -->
      <g transform="translate(904.873054 435.705735) rotate(-45) scale(0.08 -0.08)">
       <use xlink:href="#DejaVuSans-31"/>
       <use xlink:href="#DejaVuSans-32" transform="translate(63.623047 0)"/>
       <use xlink:href="#DejaVuSans-38" transform="translate(127.246094 0)"/>
       <use xlink:href="#DejaVuSans-30" transform="translate(190.869141 0)"/>
       <use xlink:href="#DejaVuSans-30" transform="translate(254.492188 0)"/>
      </g>
     </g>
    </g>
    <g id="text_12">
     <!-- Matrix size (M) -->
     <g transform="translate(501.777578 447.720778) scale(0.09 -0.09)">
      <defs>
       <path id="DejaVuSans-4d" d="M 628 4666 
L 1569 4666 
L 2759 1491 
L 3956 4666 
L 4897 4666 
L 4897 0 
L 4281 0 
L 4281 4097 
L 3078 897 
L 2444 897 
L 1241 4097 
L 1241 0 
L 628 0 
L 628 4666 
z
" transform="scale(0.015625)"/>
       <path id="DejaVuSans-61" d="M 2194 1759 
Q 1497 1759 1228 1600 
Q 959 1441 959 1056 
Q 959 750 1161 570 
Q 1363 391 1709 391 
Q 2188 391 2477 730 
Q 2766 1069 2766 1631 
L 2766 1759 
L 2194 1759 
z
M 3341 1997 
L 3341 0 
L 2766 0 
L 2766 531 
Q 2569 213 2275 61 
Q 1981 -91 1556 -91 
Q 1019 -91 701 211 
Q 384 513 384 1019 
Q 384 1609 779 1909 
Q 1175 2209 1959 2209 
L 2766 2209 
L 2766 2266 
Q 2766 2663 2505 2880 
Q 2244 3097 1772 3097 
Q 1472 3097 1187 3025 
Q 903 2953 641 2809 
L 641 3341 
Q 956 3463 1253 3523 
Q 1550 3584 1831 3584 
Q 2591 3584 2966 3190 
Q 3341 2797 3341 1997 
z
" transform="scale(0.015625)"/>
       <path id="DejaVuSans-74" d="M 1172 4494 
L 1172 3500 
L 2356 3500 
L 2356 3053 
L 1172 3053 
L 1172 1153 
Q 1172 725 1289 603 
Q 1406 481 1766 481 
L 2356 481 
L 2356 0 
L 1766 0 
Q 1100 0 847 248 
Q 594 497 594 1153 
L 594 3053 
L 172 3053 
L 172 3500 
L 594 3500 
L 594 4494 
L 1172 4494 
z
" transform="scale(0.015625)"/>
       <path id="DejaVuSans-72" d="M 2631 2963 
Q 2534 3019 2420 3045 
Q 2306 3072 2169 3072 
Q 1681 3072 1420 2755 
Q 1159 2438 1159 1844 
L 1159 0 
L 581 0 
L 581 3500 
L 1159 3500 
L 1159 2956 
Q 1341 3275 1631 3429 
Q 1922 3584 2338 3584 
Q 2397 3584 2469 3576 
Q 2541 3569 2628 3553 
L 2631 2963 
z
" transform="scale(0.015625)"/>
       <path id="DejaVuSans-69" d="M 603 3500 
L 1178 3500 
L 1178 0 
L 603 0 
L 603 3500 
z
M 603 4863 
L 1178 4863 
L 1178 4134 
L 603 4134 
L 603 4863 
z
" transform="scale(0.015625)"/>
       <path id="DejaVuSans-78" d="M 3513 3500 
L 2247 1797 
L 3578 0 
L 2900 0 
L 1881 1375 
L 863 0 
L 184 0 
L 1544 1831 
L 300 3500 
L 978 3500 
L 1906 2253 
L 2834 3500 
L 3513 3500 
z
" transform="scale(0.015625)"/>
       <path id="DejaVuSans-20" transform="scale(0.015625)"/>
       <path id="DejaVuSans-73" d="M 2834 3397 
L 2834 2853 
Q 2591 2978 2328 3040 
Q 2066 3103 1784 3103 
Q 1356 3103 1142 2972 
Q 928 2841 928 2578 
Q 928 2378 1081 2264 
Q 1234 2150 1697 2047 
L 1894 2003 
Q 2506 1872 2764 1633 
Q 3022 1394 3022 966 
Q 3022 478 2636 193 
Q 2250 -91 1575 -91 
Q 1294 -91 989 -36 
Q 684 19 347 128 
L 347 722 
Q 666 556 975 473 
Q 1284 391 1588 391 
Q 1994 391 2212 530 
Q 2431 669 2431 922 
Q 2431 1156 2273 1281 
Q 2116 1406 1581 1522 
L 1381 1569 
Q 847 1681 609 1914 
Q 372 2147 372 2553 
Q 372 3047 722 3315 
Q 1072 3584 1716 3584 
Q 2034 3584 2315 3537 
Q 2597 3491 2834 3397 
z
" transform="scale(0.015625)"/>
       <path id="DejaVuSans-7a" d="M 353 3500 
L 3084 3500 
L 3084 2975 
L 922 459 
L 3084 459 
L 3084 0 
L 275 0 
L 275 525 
L 2438 3041 
L 353 3041 
L 353 3500 
z
" transform="scale(0.015625)"/>
       <path id="DejaVuSans-65" d="M 3597 1894 
L 3597 1613 
L 953 1613 
Q 991 1019 1311 708 
Q 1631 397 2203 397 
Q 2534 397 2845 478 
Q 3156 559 3463 722 
L 3463 178 
Q 3153 47 2828 -22 
Q 2503 -91 2169 -91 
Q 1331 -91 842 396 
Q 353 884 353 1716 
Q 353 2575 817 3079 
Q 1281 3584 2069 3584 
Q 2775 3584 3186 3129 
Q 3597 2675 3597 1894 
z
M 3022 2063 
Q 3016 2534 2758 2815 
Q 2500 3097 2075 3097 
Q 1594 3097 1305 2825 
Q 1016 2553 972 2059 
L 3022 2063 
z
" transform="scale(0.015625)"/>
       <path id="DejaVuSans-28" d="M 1984 4856 
Q 1566 4138 1362 3434 
Q 1159 2731 1159 2009 
Q 1159 1288 1364 580 
Q 1569 -128 1984 -844 
L 1484 -844 
Q 1016 -109 783 600 
Q 550 1309 550 2009 
Q 550 2706 781 3412 
Q 1013 4119 1484 4856 
L 1984 4856 
z
" transform="scale(0.015625)"/>
       <path id="DejaVuSans-29" d="M 513 4856 
L 1013 4856 
Q 1481 4119 1714 3412 
Q 1947 2706 1947 2009 
Q 1947 1309 1714 600 
Q 1481 -109 1013 -844 
L 513 -844 
Q 928 -128 1133 580 
Q 1338 1288 1338 2009 
Q 1338 2731 1133 3434 
Q 928 4138 513 4856 
z
" transform="scale(0.015625)"/>
      </defs>
      <use xlink:href="#DejaVuSans-4d"/>
      <use xlink:href="#DejaVuSans-61" transform="translate(86.279297 0)"/>
      <use xlink:href="#DejaVuSans-74" transform="translate(147.558594 0)"/>
      <use xlink:href="#DejaVuSans-72" transform="translate(186.767578 0)"/>
      <use xlink:href="#DejaVuSans-69" transform="translate(227.880859 0)"/>
      <use xlink:href="#DejaVuSans-78" transform="translate(255.664062 0)"/>
      <use xlink:href="#DejaVuSans-20" transform="translate(314.84375 0)"/>
      <use xlink:href="#DejaVuSans-73" transform="translate(346.630859 0)"/>
      <use xlink:href="#DejaVuSans-69" transform="translate(398.730469 0)"/>
      <use xlink:href="#DejaVuSans-7a" transform="translate(426.513672 0)"/>
      <use xlink:href="#DejaVuSans-65" transform="translate(479.003906 0)"/>
      <use xlink:href="#DejaVuSans-20" transform="translate(540.527344 0)"/>
      <use xlink:href="#DejaVuSans-28" transform="translate(572.314453 0)"/>
      <use xlink:href="#DejaVuSans-4d" transform="translate(611.328125 0)"/>
      <use xlink:href="#DejaVuSans-29" transform="translate(697.607422 0)"/>
     </g>
    </g>
   </g>
   <g id="matplotlib.axis_2">
    <g id="ytick_1">
     <g id="line2d_12">
      <path d="M 72.65 406.411542 
L 997.2 406.411542 
" clip-path="url(#p09eb95af97)" style="fill: none; stroke-dasharray: 2.96,1.28; stroke-dashoffset: 0; stroke: #b0b0b0; stroke-opacity: 0.5; stroke-width: 0.8"/>
     </g>
     <g id="line2d_13">
      <defs>
       <path id="mf0a0d2098b" d="M 0 0 
L -3.5 0 
" style="stroke: #000000; stroke-width: 0.8"/>
      </defs>
      <g>
       <use xlink:href="#mf0a0d2098b" x="72.65" y="406.411542" style="stroke: #000000; stroke-width: 0.8"/>
      </g>
     </g>
     <g id="text_13">
      <!-- 0.0 -->
      <g transform="translate(49.746875 410.210761) scale(0.1 -0.1)">
       <defs>
        <path id="DejaVuSans-2e" d="M 684 794 
L 1344 794 
L 1344 0 
L 684 0 
L 684 794 
z
" transform="scale(0.015625)"/>
       </defs>
       <use xlink:href="#DejaVuSans-30"/>
       <use xlink:href="#DejaVuSans-2e" transform="translate(63.623047 0)"/>
       <use xlink:href="#DejaVuSans-30" transform="translate(95.410156 0)"/>
      </g>
     </g>
    </g>
    <g id="ytick_2">
     <g id="line2d_14">
      <path d="M 72.65 356.703994 
L 997.2 356.703994 
" clip-path="url(#p09eb95af97)" style="fill: none; stroke-dasharray: 2.96,1.28; stroke-dashoffset: 0; stroke: #b0b0b0; stroke-opacity: 0.5; stroke-width: 0.8"/>
     </g>
     <g id="line2d_15">
      <g>
       <use xlink:href="#mf0a0d2098b" x="72.65" y="356.703994" style="stroke: #000000; stroke-width: 0.8"/>
      </g>
     </g>
     <g id="text_14">
      <!-- 5000.0 -->
      <g transform="translate(30.659375 360.503213) scale(0.1 -0.1)">
       <use xlink:href="#DejaVuSans-35"/>
       <use xlink:href="#DejaVuSans-30" transform="translate(63.623047 0)"/>
       <use xlink:href="#DejaVuSans-30" transform="translate(127.246094 0)"/>
       <use xlink:href="#DejaVuSans-30" transform="translate(190.869141 0)"/>
       <use xlink:href="#DejaVuSans-2e" transform="translate(254.492188 0)"/>
       <use xlink:href="#DejaVuSans-30" transform="translate(286.279297 0)"/>
      </g>
     </g>
    </g>
    <g id="ytick_3">
     <g id="line2d_16">
      <path d="M 72.65 306.996447 
L 997.2 306.996447 
" clip-path="url(#p09eb95af97)" style="fill: none; stroke-dasharray: 2.96,1.28; stroke-dashoffset: 0; stroke: #b0b0b0; stroke-opacity: 0.5; stroke-width: 0.8"/>
     </g>
     <g id="line2d_17">
      <g>
       <use xlink:href="#mf0a0d2098b" x="72.65" y="306.996447" style="stroke: #000000; stroke-width: 0.8"/>
      </g>
     </g>
     <g id="text_15">
      <!-- 10000.0 -->
      <g transform="translate(24.296875 310.795665) scale(0.1 -0.1)">
       <use xlink:href="#DejaVuSans-31"/>
       <use xlink:href="#DejaVuSans-30" transform="translate(63.623047 0)"/>
       <use xlink:href="#DejaVuSans-30" transform="translate(127.246094 0)"/>
       <use xlink:href="#DejaVuSans-30" transform="translate(190.869141 0)"/>
       <use xlink:href="#DejaVuSans-30" transform="translate(254.492188 0)"/>
       <use xlink:href="#DejaVuSans-2e" transform="translate(318.115234 0)"/>
       <use xlink:href="#DejaVuSans-30" transform="translate(349.902344 0)"/>
      </g>
     </g>
    </g>
    <g id="ytick_4">
     <g id="line2d_18">
      <path d="M 72.65 257.288899 
L 997.2 257.288899 
" clip-path="url(#p09eb95af97)" style="fill: none; stroke-dasharray: 2.96,1.28; stroke-dashoffset: 0; stroke: #b0b0b0; stroke-opacity: 0.5; stroke-width: 0.8"/>
     </g>
     <g id="line2d_19">
      <g>
       <use xlink:href="#mf0a0d2098b" x="72.65" y="257.288899" style="stroke: #000000; stroke-width: 0.8"/>
      </g>
     </g>
     <g id="text_16">
      <!-- 15000.0 -->
      <g transform="translate(24.296875 261.088118) scale(0.1 -0.1)">
       <use xlink:href="#DejaVuSans-31"/>
       <use xlink:href="#DejaVuSans-35" transform="translate(63.623047 0)"/>
       <use xlink:href="#DejaVuSans-30" transform="translate(127.246094 0)"/>
       <use xlink:href="#DejaVuSans-30" transform="translate(190.869141 0)"/>
       <use xlink:href="#DejaVuSans-30" transform="translate(254.492188 0)"/>
       <use xlink:href="#DejaVuSans-2e" transform="translate(318.115234 0)"/>
       <use xlink:href="#DejaVuSans-30" transform="translate(349.902344 0)"/>
      </g>
     </g>
    </g>
    <g id="ytick_5">
     <g id="line2d_20">
      <path d="M 72.65 207.581351 
L 997.2 207.581351 
" clip-path="url(#p09eb95af97)" style="fill: none; stroke-dasharray: 2.96,1.28; stroke-dashoffset: 0; stroke: #b0b0b0; stroke-opacity: 0.5; stroke-width: 0.8"/>
     </g>
     <g id="line2d_21">
      <g>
       <use xlink:href="#mf0a0d2098b" x="72.65" y="207.581351" style="stroke: #000000; stroke-width: 0.8"/>
      </g>
     </g>
     <g id="text_17">
      <!-- 20000.0 -->
      <g transform="translate(24.296875 211.38057) scale(0.1 -0.1)">
       <use xlink:href="#DejaVuSans-32"/>
       <use xlink:href="#DejaVuSans-30" transform="translate(63.623047 0)"/>
       <use xlink:href="#DejaVuSans-30" transform="translate(127.246094 0)"/>
       <use xlink:href="#DejaVuSans-30" transform="translate(190.869141 0)"/>
       <use xlink:href="#DejaVuSans-30" transform="translate(254.492188 0)"/>
       <use xlink:href="#DejaVuSans-2e" transform="translate(318.115234 0)"/>
       <use xlink:href="#DejaVuSans-30" transform="translate(349.902344 0)"/>
      </g>
     </g>
    </g>
    <g id="ytick_6">
     <g id="line2d_22">
      <path d="M 72.65 157.873803 
L 997.2 157.873803 
" clip-path="url(#p09eb95af97)" style="fill: none; stroke-dasharray: 2.96,1.28; stroke-dashoffset: 0; stroke: #b0b0b0; stroke-opacity: 0.5; stroke-width: 0.8"/>
     </g>
     <g id="line2d_23">
      <g>
       <use xlink:href="#mf0a0d2098b" x="72.65" y="157.873803" style="stroke: #000000; stroke-width: 0.8"/>
      </g>
     </g>
     <g id="text_18">
      <!-- 25000.0 -->
      <g transform="translate(24.296875 161.673022) scale(0.1 -0.1)">
       <use xlink:href="#DejaVuSans-32"/>
       <use xlink:href="#DejaVuSans-35" transform="translate(63.623047 0)"/>
       <use xlink:href="#DejaVuSans-30" transform="translate(127.246094 0)"/>
       <use xlink:href="#DejaVuSans-30" transform="translate(190.869141 0)"/>
       <use xlink:href="#DejaVuSans-30" transform="translate(254.492188 0)"/>
       <use xlink:href="#DejaVuSans-2e" transform="translate(318.115234 0)"/>
       <use xlink:href="#DejaVuSans-30" transform="translate(349.902344 0)"/>
      </g>
     </g>
    </g>
    <g id="ytick_7">
     <g id="line2d_24">
      <path d="M 72.65 108.166256 
L 997.2 108.166256 
" clip-path="url(#p09eb95af97)" style="fill: none; stroke-dasharray: 2.96,1.28; stroke-dashoffset: 0; stroke: #b0b0b0; stroke-opacity: 0.5; stroke-width: 0.8"/>
     </g>
     <g id="line2d_25">
      <g>
       <use xlink:href="#mf0a0d2098b" x="72.65" y="108.166256" style="stroke: #000000; stroke-width: 0.8"/>
      </g>
     </g>
     <g id="text_19">
      <!-- 30000.0 -->
      <g transform="translate(24.296875 111.965474) scale(0.1 -0.1)">
       <use xlink:href="#DejaVuSans-33"/>
       <use xlink:href="#DejaVuSans-30" transform="translate(63.623047 0)"/>
       <use xlink:href="#DejaVuSans-30" transform="translate(127.246094 0)"/>
       <use xlink:href="#DejaVuSans-30" transform="translate(190.869141 0)"/>
       <use xlink:href="#DejaVuSans-30" transform="translate(254.492188 0)"/>
       <use xlink:href="#DejaVuSans-2e" transform="translate(318.115234 0)"/>
       <use xlink:href="#DejaVuSans-30" transform="translate(349.902344 0)"/>
      </g>
     </g>
    </g>
    <g id="ytick_8">
     <g id="line2d_26">
      <path d="M 72.65 58.458708 
L 997.2 58.458708 
" clip-path="url(#p09eb95af97)" style="fill: none; stroke-dasharray: 2.96,1.28; stroke-dashoffset: 0; stroke: #b0b0b0; stroke-opacity: 0.5; stroke-width: 0.8"/>
     </g>
     <g id="line2d_27">
      <g>
       <use xlink:href="#mf0a0d2098b" x="72.65" y="58.458708" style="stroke: #000000; stroke-width: 0.8"/>
      </g>
     </g>
     <g id="text_20">
      <!-- 35000.0 -->
      <g transform="translate(24.296875 62.257927) scale(0.1 -0.1)">
       <use xlink:href="#DejaVuSans-33"/>
       <use xlink:href="#DejaVuSans-35" transform="translate(63.623047 0)"/>
       <use xlink:href="#DejaVuSans-30" transform="translate(127.246094 0)"/>
       <use xlink:href="#DejaVuSans-30" transform="translate(190.869141 0)"/>
       <use xlink:href="#DejaVuSans-30" transform="translate(254.492188 0)"/>
       <use xlink:href="#DejaVuSans-2e" transform="translate(318.115234 0)"/>
       <use xlink:href="#DejaVuSans-30" transform="translate(349.902344 0)"/>
      </g>
     </g>
    </g>
    <g id="text_21">
     <!-- Time (µs) -->
     <g transform="translate(18.425156 237.084912) rotate(-90) scale(0.09 -0.09)">
      <defs>
       <path id="DejaVuSans-54" d="M -19 4666 
L 3928 4666 
L 3928 4134 
L 2272 4134 
L 2272 0 
L 1638 0 
L 1638 4134 
L -19 4134 
L -19 4666 
z
" transform="scale(0.015625)"/>
       <path id="DejaVuSans-6d" d="M 3328 2828 
Q 3544 3216 3844 3400 
Q 4144 3584 4550 3584 
Q 5097 3584 5394 3201 
Q 5691 2819 5691 2113 
L 5691 0 
L 5113 0 
L 5113 2094 
Q 5113 2597 4934 2840 
Q 4756 3084 4391 3084 
Q 3944 3084 3684 2787 
Q 3425 2491 3425 1978 
L 3425 0 
L 2847 0 
L 2847 2094 
Q 2847 2600 2669 2842 
Q 2491 3084 2119 3084 
Q 1678 3084 1418 2786 
Q 1159 2488 1159 1978 
L 1159 0 
L 581 0 
L 581 3500 
L 1159 3500 
L 1159 2956 
Q 1356 3278 1631 3431 
Q 1906 3584 2284 3584 
Q 2666 3584 2933 3390 
Q 3200 3197 3328 2828 
z
" transform="scale(0.015625)"/>
       <path id="DejaVuSans-b5" d="M 544 -1331 
L 544 3500 
L 1119 3500 
L 1119 1325 
Q 1119 872 1334 640 
Q 1550 409 1972 409 
Q 2434 409 2667 671 
Q 2900 934 2900 1459 
L 2900 3500 
L 3475 3500 
L 3475 806 
Q 3475 619 3529 530 
Q 3584 441 3700 441 
Q 3728 441 3778 458 
Q 3828 475 3916 513 
L 3916 50 
Q 3788 -22 3673 -56 
Q 3559 -91 3450 -91 
Q 3234 -91 3106 31 
Q 2978 153 2931 403 
Q 2775 156 2548 32 
Q 2322 -91 2016 -91 
Q 1697 -91 1473 31 
Q 1250 153 1119 397 
L 1119 -1331 
L 544 -1331 
z
" transform="scale(0.015625)"/>
      </defs>
      <use xlink:href="#DejaVuSans-54"/>
      <use xlink:href="#DejaVuSans-69" transform="translate(57.958984 0)"/>
      <use xlink:href="#DejaVuSans-6d" transform="translate(85.742188 0)"/>
      <use xlink:href="#DejaVuSans-65" transform="translate(183.154297 0)"/>
      <use xlink:href="#DejaVuSans-20" transform="translate(244.677734 0)"/>
      <use xlink:href="#DejaVuSans-28" transform="translate(276.464844 0)"/>
      <use xlink:href="#DejaVuSans-b5" transform="translate(315.478516 0)"/>
      <use xlink:href="#DejaVuSans-73" transform="translate(379.101562 0)"/>
      <use xlink:href="#DejaVuSans-29" transform="translate(431.201172 0)"/>
     </g>
    </g>
   </g>
   <g id="patch_3">
    <path d="M 72.65 406.411542 
L 72.65 25.44 
" style="fill: none; stroke: #000000; stroke-width: 0.8; stroke-linejoin: miter; stroke-linecap: square"/>
   </g>
   <g id="patch_4">
    <path d="M 997.2 406.411542 
L 997.2 25.44 
" style="fill: none; stroke: #000000; stroke-width: 0.8; stroke-linejoin: miter; stroke-linecap: square"/>
   </g>
   <g id="patch_5">
    <path d="M 72.65 406.411542 
L 997.2 406.411542 
" style="fill: none; stroke: #000000; stroke-width: 0.8; stroke-linejoin: miter; stroke-linecap: square"/>
   </g>
   <g id="patch_6">
    <path d="M 72.65 25.44 
L 997.2 25.44 
" style="fill: none; stroke: #000000; stroke-width: 0.8; stroke-linejoin: miter; stroke-linecap: square"/>
   </g>
   <g id="patch_7">
    <path d="M 114.675 406.411542 
L 176.934259 406.411542 
L 176.934259 406.411363 
L 114.675 406.411363 
z
" clip-path="url(#p09eb95af97)" style="fill: #4878cf"/>
   </g>
   <g id="patch_8">
    <path d="M 192.499074 406.411542 
L 254.758333 406.411542 
L 254.758333 406.411381 
L 192.499074 406.411381 
z
" clip-path="url(#p09eb95af97)" style="fill: #4878cf"/>
   </g>
   <g id="patch_9">
    <path d="M 270.323148 406.411542 
L 332.582407 406.411542 
L 332.582407 406.41138 
L 270.323148 406.41138 
z
" clip-path="url(#p09eb95af97)" style="fill: #4878cf"/>
   </g>
   <g id="patch_10">
    <path d="M 348.147222 406.411542 
L 410.406481 406.411542 
L 410.406481 406.411368 
L 348.147222 406.411368 
z
" clip-path="url(#p09eb95af97)" style="fill: #4878cf"/>
   </g>
   <g id="patch_11">
    <path d="M 425.971296 406.411542 
L 488.230556 406.411542 
L 488.230556 406.411238 
L 425.971296 406.411238 
z
" clip-path="url(#p09eb95af97)" style="fill: #4878cf"/>
   </g>
   <g id="patch_12">
    <path d="M 503.79537 406.411542 
L 566.05463 406.411542 
L 566.05463 406.409953 
L 503.79537 406.409953 
z
" clip-path="url(#p09eb95af97)" style="fill: #4878cf"/>
   </g>
   <g id="patch_13">
    <path d="M 581.619444 406.411542 
L 643.878704 406.411542 
L 643.878704 406.395059 
L 581.619444 406.395059 
z
" clip-path="url(#p09eb95af97)" style="fill: #4878cf"/>
   </g>
   <g id="patch_14">
    <path d="M 659.443519 406.411542 
L 721.702778 406.411542 
L 721.702778 406.29194 
L 659.443519 406.29194 
z
" clip-path="url(#p09eb95af97)" style="fill: #4878cf"/>
   </g>
   <g id="patch_15">
    <path d="M 737.267593 406.411542 
L 799.526852 406.411542 
L 799.526852 405.515734 
L 737.267593 405.515734 
z
" clip-path="url(#p09eb95af97)" style="fill: #4878cf"/>
   </g>
   <g id="patch_16">
    <path d="M 815.091667 406.411542 
L 877.350926 406.411542 
L 877.350926 398.097665 
L 815.091667 398.097665 
z
" clip-path="url(#p09eb95af97)" style="fill: #4878cf"/>
   </g>
   <g id="patch_17">
    <path d="M 892.915741 406.411542 
L 955.175 406.411542 
L 955.175 43.619414 
L 892.915741 43.619414 
z
" clip-path="url(#p09eb95af97)" style="fill: #4878cf"/>
   </g>
   <g id="text_22">
    <!-- OpenCL mean execution time vs matrix size -->
    <g transform="translate(413.304531 19.44) scale(0.11 -0.11)">
     <defs>
      <path id="DejaVuSans-4f" d="M 2522 4238 
Q 1834 4238 1429 3725 
Q 1025 3213 1025 2328 
Q 1025 1447 1429 934 
Q 1834 422 2522 422 
Q 3209 422 3611 934 
Q 4013 1447 4013 2328 
Q 4013 3213 3611 3725 
Q 3209 4238 2522 4238 
z
M 2522 4750 
Q 3503 4750 4090 4092 
Q 4678 3434 4678 2328 
Q 4678 1225 4090 567 
Q 3503 -91 2522 -91 
Q 1538 -91 948 565 
Q 359 1222 359 2328 
Q 359 3434 948 4092 
Q 1538 4750 2522 4750 
z
" transform="scale(0.015625)"/>
      <path id="DejaVuSans-70" d="M 1159 525 
L 1159 -1331 
L 581 -1331 
L 581 3500 
L 1159 3500 
L 1159 2969 
Q 1341 3281 1617 3432 
Q 1894 3584 2278 3584 
Q 2916 3584 3314 3078 
Q 3713 2572 3713 1747 
Q 3713 922 3314 415 
Q 2916 -91 2278 -91 
Q 1894 -91 1617 61 
Q 1341 213 1159 525 
z
M 3116 1747 
Q 3116 2381 2855 2742 
Q 2594 3103 2138 3103 
Q 1681 3103 1420 2742 
Q 1159 2381 1159 1747 
Q 1159 1113 1420 752 
Q 1681 391 2138 391 
Q 2594 391 2855 752 
Q 3116 1113 3116 1747 
z
" transform="scale(0.015625)"/>
      <path id="DejaVuSans-6e" d="M 3513 2113 
L 3513 0 
L 2938 0 
L 2938 2094 
Q 2938 2591 2744 2837 
Q 2550 3084 2163 3084 
Q 1697 3084 1428 2787 
Q 1159 2491 1159 1978 
L 1159 0 
L 581 0 
L 581 3500 
L 1159 3500 
L 1159 2956 
Q 1366 3272 1645 3428 
Q 1925 3584 2291 3584 
Q 2894 3584 3203 3211 
Q 3513 2838 3513 2113 
z
" transform="scale(0.015625)"/>
      <path id="DejaVuSans-43" d="M 4122 4306 
L 4122 3641 
Q 3803 3938 3442 4084 
Q 3081 4231 2675 4231 
Q 1875 4231 1450 3742 
Q 1025 3253 1025 2328 
Q 1025 1406 1450 917 
Q 1875 428 2675 428 
Q 3081 428 3442 575 
Q 3803 722 4122 1019 
L 4122 359 
Q 3791 134 3420 21 
Q 3050 -91 2638 -91 
Q 1578 -91 968 557 
Q 359 1206 359 2328 
Q 359 3453 968 4101 
Q 1578 4750 2638 4750 
Q 3056 4750 3426 4639 
Q 3797 4528 4122 4306 
z
" transform="scale(0.015625)"/>
      <path id="DejaVuSans-4c" d="M 628 4666 
L 1259 4666 
L 1259 531 
L 3531 531 
L 3531 0 
L 628 0 
L 628 4666 
z
" transform="scale(0.015625)"/>
      <path id="DejaVuSans-63" d="M 3122 3366 
L 3122 2828 
Q 2878 2963 2633 3030 
Q 2388 3097 2138 3097 
Q 1578 3097 1268 2742 
Q 959 2388 959 1747 
Q 959 1106 1268 751 
Q 1578 397 2138 397 
Q 2388 397 2633 464 
Q 2878 531 3122 666 
L 3122 134 
Q 2881 22 2623 -34 
Q 2366 -91 2075 -91 
Q 1284 -91 818 406 
Q 353 903 353 1747 
Q 353 2603 823 3093 
Q 1294 3584 2113 3584 
Q 2378 3584 2631 3529 
Q 2884 3475 3122 3366 
z
" transform="scale(0.015625)"/>
      <path id="DejaVuSans-75" d="M 544 1381 
L 544 3500 
L 1119 3500 
L 1119 1403 
Q 1119 906 1312 657 
Q 1506 409 1894 409 
Q 2359 409 2629 706 
Q 2900 1003 2900 1516 
L 2900 3500 
L 3475 3500 
L 3475 0 
L 2900 0 
L 2900 538 
Q 2691 219 2414 64 
Q 2138 -91 1772 -91 
Q 1169 -91 856 284 
Q 544 659 544 1381 
z
M 1991 3584 
L 1991 3584 
z
" transform="scale(0.015625)"/>
      <path id="DejaVuSans-6f" d="M 1959 3097 
Q 1497 3097 1228 2736 
Q 959 2375 959 1747 
Q 959 1119 1226 758 
Q 1494 397 1959 397 
Q 2419 397 2687 759 
Q 2956 1122 2956 1747 
Q 2956 2369 2687 2733 
Q 2419 3097 1959 3097 
z
M 1959 3584 
Q 2709 3584 3137 3096 
Q 3566 2609 3566 1747 
Q 3566 888 3137 398 
Q 2709 -91 1959 -91 
Q 1206 -91 779 398 
Q 353 888 353 1747 
Q 353 2609 779 3096 
Q 1206 3584 1959 3584 
z
" transform="scale(0.015625)"/>
      <path id="DejaVuSans-76" d="M 191 3500 
L 800 3500 
L 1894 563 
L 2988 3500 
L 3597 3500 
L 2284 0 
L 1503 0 
L 191 3500 
z
" transform="scale(0.015625)"/>
     </defs>
     <use xlink:href="#DejaVuSans-4f"/>
     <use xlink:href="#DejaVuSans-70" transform="translate(78.710938 0)"/>
     <use xlink:href="#DejaVuSans-65" transform="translate(142.1875 0)"/>
     <use xlink:href="#DejaVuSans-6e" transform="translate(203.710938 0)"/>
     <use xlink:href="#DejaVuSans-43" transform="translate(267.089844 0)"/>
     <use xlink:href="#DejaVuSans-4c" transform="translate(336.914062 0)"/>
     <use xlink:href="#DejaVuSans-20" transform="translate(392.626953 0)"/>
     <use xlink:href="#DejaVuSans-6d" transform="translate(424.414062 0)"/>
     <use xlink:href="#DejaVuSans-65" transform="translate(521.826172 0)"/>
     <use xlink:href="#DejaVuSans-61" transform="translate(583.349609 0)"/>
     <use xlink:href="#DejaVuSans-6e" transform="translate(644.628906 0)"/>
     <use xlink:href="#DejaVuSans-20" transform="translate(708.007812 0)"/>
     <use xlink:href="#DejaVuSans-65" transform="translate(739.794922 0)"/>
     <use xlink:href="#DejaVuSans-78" transform="translate(799.568359 0)"/>
     <use xlink:href="#DejaVuSans-65" transform="translate(855.623047 0)"/>
     <use xlink:href="#DejaVuSans-63" transform="translate(917.146484 0)"/>
     <use xlink:href="#DejaVuSans-75" transform="translate(972.126953 0)"/>
     <use xlink:href="#DejaVuSans-74" transform="translate(1035.505859 0)"/>
     <use xlink:href="#DejaVuSans-69" transform="translate(1074.714844 0)"/>
     <use xlink:href="#DejaVuSans-6f" transform="translate(1102.498047 0)"/>
     <use xlink:href="#DejaVuSans-6e" transform="translate(1163.679688 0)"/>
     <use xlink:href="#DejaVuSans-20" transform="translate(1227.058594 0)"/>
     <use xlink:href="#DejaVuSans-74" transform="translate(1258.845703 0)"/>
     <use xlink:href="#DejaVuSans-69" transform="translate(1298.054688 0)"/>
     <use xlink:href="#DejaVuSans-6d" transform="translate(1325.837891 0)"/>
     <use xlink:href="#DejaVuSans-65" transform="translate(1423.25 0)"/>
     <use xlink:href="#DejaVuSans-20" transform="translate(1484.773438 0)"/>
     <use xlink:href="#DejaVuSans-76" transform="translate(1516.560547 0)"/>
     <use xlink:href="#DejaVuSans-73" transform="translate(1575.740234 0)"/>
     <use xlink:href="#DejaVuSans-20" transform="translate(1627.839844 0)"/>
     <use xlink:href="#DejaVuSans-6d" transform="translate(1659.626953 0)"/>
     <use xlink:href="#DejaVuSans-61" transform="translate(1757.039062 0)"/>
     <use xlink:href="#DejaVuSans-74" transform="translate(1818.318359 0)"/>
     <use xlink:href="#DejaVuSans-72" transform="translate(1857.527344 0)"/>
     <use xlink:href="#DejaVuSans-69" transform="translate(1898.640625 0)"/>
     <use xlink:href="#DejaVuSans-78" transform="translate(1926.423828 0)"/>
     <use xlink:href="#DejaVuSans-20" transform="translate(1985.603516 0)"/>
     <use xlink:href="#DejaVuSans-73" transform="translate(2017.390625 0)"/>
     <use xlink:href="#DejaVuSans-69" transform="translate(2069.490234 0)"/>
     <use xlink:href="#DejaVuSans-7a" transform="translate(2097.273438 0)"/>
     <use xlink:href="#DejaVuSans-65" transform="translate(2149.763672 0)"/>
    </g>
   </g>
   <g id="LineCollection_1">
    <path d="M 145.80463 406.4114 
L 145.80463 406.411326 
" clip-path="url(#p09eb95af97)" style="fill: none; stroke: #d65f5f; stroke-width: 1.5"/>
    <path d="M 223.628704 406.411395 
L 223.628704 406.411367 
" clip-path="url(#p09eb95af97)" style="fill: none; stroke: #d65f5f; stroke-width: 1.5"/>
    <path d="M 301.452778 406.411383 
L 301.452778 406.411377 
" clip-path="url(#p09eb95af97)" style="fill: none; stroke: #d65f5f; stroke-width: 1.5"/>
    <path d="M 379.276852 406.411373 
L 379.276852 406.411362 
" clip-path="url(#p09eb95af97)" style="fill: none; stroke: #d65f5f; stroke-width: 1.5"/>
    <path d="M 457.100926 406.411239 
L 457.100926 406.411238 
" clip-path="url(#p09eb95af97)" style="fill: none; stroke: #d65f5f; stroke-width: 1.5"/>
    <path d="M 534.925 406.409957 
L 534.925 406.409949 
" clip-path="url(#p09eb95af97)" style="fill: none; stroke: #d65f5f; stroke-width: 1.5"/>
    <path d="M 612.749074 406.39508 
L 612.749074 406.395038 
" clip-path="url(#p09eb95af97)" style="fill: none; stroke: #d65f5f; stroke-width: 1.5"/>
    <path d="M 690.573148 406.294632 
L 690.573148 406.289247 
" clip-path="url(#p09eb95af97)" style="fill: none; stroke: #d65f5f; stroke-width: 1.5"/>
    <path d="M 768.397222 405.521115 
L 768.397222 405.510352 
" clip-path="url(#p09eb95af97)" style="fill: none; stroke: #d65f5f; stroke-width: 1.5"/>
    <path d="M 846.221296 398.197929 
L 846.221296 397.997401 
" clip-path="url(#p09eb95af97)" style="fill: none; stroke: #d65f5f; stroke-width: 1.5"/>
    <path d="M 924.04537 43.657326 
L 924.04537 43.581502 
" clip-path="url(#p09eb95af97)" style="fill: none; stroke: #d65f5f; stroke-width: 1.5"/>
   </g>
   <g id="line2d_28">
    <defs>
     <path id="m53d12da59f" d="M 4 0 
L -4 -0 
" style="stroke: #d65f5f"/>
    </defs>
    <g clip-path="url(#p09eb95af97)">
     <use xlink:href="#m53d12da59f" x="145.80463" y="406.4114" style="fill: #d65f5f; stroke: #d65f5f"/>
     <use xlink:href="#m53d12da59f" x="223.628704" y="406.411395" style="fill: #d65f5f; stroke: #d65f5f"/>
     <use xlink:href="#m53d12da59f" x="301.452778" y="406.411383" style="fill: #d65f5f; stroke: #d65f5f"/>
     <use xlink:href="#m53d12da59f" x="379.276852" y="406.411373" style="fill: #d65f5f; stroke: #d65f5f"/>
     <use xlink:href="#m53d12da59f" x="457.100926" y="406.411239" style="fill: #d65f5f; stroke: #d65f5f"/>
     <use xlink:href="#m53d12da59f" x="534.925" y="406.409957" style="fill: #d65f5f; stroke: #d65f5f"/>
     <use xlink:href="#m53d12da59f" x="612.749074" y="406.39508" style="fill: #d65f5f; stroke: #d65f5f"/>
     <use xlink:href="#m53d12da59f" x="690.573148" y="406.294632" style="fill: #d65f5f; stroke: #d65f5f"/>
     <use xlink:href="#m53d12da59f" x="768.397222" y="405.521115" style="fill: #d65f5f; stroke: #d65f5f"/>
     <use xlink:href="#m53d12da59f" x="846.221296" y="398.197929" style="fill: #d65f5f; stroke: #d65f5f"/>
     <use xlink:href="#m53d12da59f" x="924.04537" y="43.657326" style="fill: #d65f5f; stroke: #d65f5f"/>
    </g>
   </g>
   <g id="line2d_29">
    <g clip-path="url(#p09eb95af97)">
     <use xlink:href="#m53d12da59f" x="145.80463" y="406.411326" style="fill: #d65f5f; stroke: #d65f5f"/>
     <use xlink:href="#m53d12da59f" x="223.628704" y="406.411367" style="fill: #d65f5f; stroke: #d65f5f"/>
     <use xlink:href="#m53d12da59f" x="301.452778" y="406.411377" style="fill: #d65f5f; stroke: #d65f5f"/>
     <use xlink:href="#m53d12da59f" x="379.276852" y="406.411362" style="fill: #d65f5f; stroke: #d65f5f"/>
     <use xlink:href="#m53d12da59f" x="457.100926" y="406.411238" style="fill: #d65f5f; stroke: #d65f5f"/>
     <use xlink:href="#m53d12da59f" x="534.925" y="406.409949" style="fill: #d65f5f; stroke: #d65f5f"/>
     <use xlink:href="#m53d12da59f" x="612.749074" y="406.395038" style="fill: #d65f5f; stroke: #d65f5f"/>
     <use xlink:href="#m53d12da59f" x="690.573148" y="406.289247" style="fill: #d65f5f; stroke: #d65f5f"/>
     <use xlink:href="#m53d12da59f" x="768.397222" y="405.510352" style="fill: #d65f5f; stroke: #d65f5f"/>
     <use xlink:href="#m53d12da59f" x="846.221296" y="397.997401" style="fill: #d65f5f; stroke: #d65f5f"/>
     <use xlink:href="#m53d12da59f" x="924.04537" y="43.581502" style="fill: #d65f5f; stroke: #d65f5f"/>
    </g>
   </g>
   <g id="legend_1">
    <g id="patch_18">
     <path d="M 78.95 59.060625 
L 155.465469 59.060625 
Q 157.265469 59.060625 157.265469 57.260625 
L 157.265469 31.74 
Q 157.265469 29.94 155.465469 29.94 
L 78.95 29.94 
Q 77.15 29.94 77.15 31.74 
L 77.15 57.260625 
Q 77.15 59.060625 78.95 59.060625 
z
" style="fill: #ffffff; opacity: 0.8; stroke: #cccccc; stroke-linejoin: miter"/>
    </g>
    <g id="patch_19">
     <path d="M 80.75 40.378594 
L 98.75 40.378594 
L 98.75 34.078594 
L 80.75 34.078594 
z
" style="fill: #4878cf"/>
    </g>
    <g id="text_23">
     <!-- Mean time -->
     <g transform="translate(105.95 40.378594) scale(0.09 -0.09)">
      <use xlink:href="#DejaVuSans-4d"/>
      <use xlink:href="#DejaVuSans-65" transform="translate(86.279297 0)"/>
      <use xlink:href="#DejaVuSans-61" transform="translate(147.802734 0)"/>
      <use xlink:href="#DejaVuSans-6e" transform="translate(209.082031 0)"/>
      <use xlink:href="#DejaVuSans-20" transform="translate(272.460938 0)"/>
      <use xlink:href="#DejaVuSans-74" transform="translate(304.248047 0)"/>
      <use xlink:href="#DejaVuSans-69" transform="translate(343.457031 0)"/>
      <use xlink:href="#DejaVuSans-6d" transform="translate(371.240234 0)"/>
      <use xlink:href="#DejaVuSans-65" transform="translate(468.652344 0)"/>
     </g>
    </g>
    <g id="LineCollection_2">
     <path d="M 89.75 54.938906 
L 89.75 45.938906 
" style="fill: none; stroke: #d65f5f; stroke-width: 1.5"/>
    </g>
    <g id="line2d_30">
     <g>
      <use xlink:href="#m53d12da59f" x="89.75" y="54.938906" style="fill: #d65f5f; stroke: #d65f5f"/>
     </g>
    </g>
    <g id="line2d_31">
     <g>
      <use xlink:href="#m53d12da59f" x="89.75" y="45.938906" style="fill: #d65f5f; stroke: #d65f5f"/>
     </g>
    </g>
    <g id="text_24">
     <!-- ±std -->
     <g transform="translate(105.95 53.588906) scale(0.09 -0.09)">
      <defs>
       <path id="DejaVuSans-b1" d="M 2944 4013 
L 2944 2803 
L 4684 2803 
L 4684 2272 
L 2944 2272 
L 2944 1063 
L 2419 1063 
L 2419 2272 
L 678 2272 
L 678 2803 
L 2419 2803 
L 2419 4013 
L 2944 4013 
z
M 678 531 
L 4684 531 
L 4684 0 
L 678 0 
L 678 531 
z
" transform="scale(0.015625)"/>
       <path id="DejaVuSans-64" d="M 2906 2969 
L 2906 4863 
L 3481 4863 
L 3481 0 
L 2906 0 
L 2906 525 
Q 2725 213 2448 61 
Q 2172 -91 1784 -91 
Q 1150 -91 751 415 
Q 353 922 353 1747 
Q 353 2572 751 3078 
Q 1150 3584 1784 3584 
Q 2172 3584 2448 3432 
Q 2725 3281 2906 2969 
z
M 947 1747 
Q 947 1113 1208 752 
Q 1469 391 1925 391 
Q 2381 391 2643 752 
Q 2906 1113 2906 1747 
Q 2906 2381 2643 2742 
Q 2381 3103 1925 3103 
Q 1469 3103 1208 2742 
Q 947 2381 947 1747 
z
" transform="scale(0.015625)"/>
      </defs>
      <use xlink:href="#DejaVuSans-b1"/>
      <use xlink:href="#DejaVuSans-73" transform="translate(83.789062 0)"/>
      <use xlink:href="#DejaVuSans-74" transform="translate(135.888672 0)"/>
      <use xlink:href="#DejaVuSans-64" transform="translate(175.097656 0)"/>
     </g>
    </g>
   </g>
  </g>
 </g>
 <defs>
  <clipPath id="p09eb95af97">
   <rect x="72.65" y="25.44" width="924.55" height="380.971542"/>
  </clipPath>
 </defs>
</svg>
